# xmcd
#
# Track frame offsets:
#	150
#	12167
#	22800
#	29945
#	44360
#	59941
#	71172
#	95690
#	106914
#	119930
#	132227
#	142889
#	157674
#	166391
#	181634
#
# Disc length: 2801 seconds
#
# Revision: 1
# Processed by: cddbd v1.4PL0 Copyright (c) Steve Scherf et al.
# Submitted via: audiograbber 1.81.03
#
DISCID=d20aef0f
DTITLE=Rainer Weisbecker - Ganz Allaa
DYEAR=2002
DGENRE=Blues
TTITLE0=Ich zieh in de Baumarkt
TTITLE1=De Dehaam-Boogie
TTITLE2=Uff en Mond
TTITLE3=Da schlägt e riesig Herz
TTITLE4=Laß mei Mädche in Ruh
TTITLE5=Komische Dinger
TTITLE6=Anner Wetter
TTITLE7=De Blues, mei Zuckerstück
TTITLE8=Jackpot
TTITLE9=Äppelwoi-Blues
TTITLE10=Nur fort
TTITLE11=Aan Tequila zuviel
TTITLE12=Zwaa blaue Auge
TTITLE13=Jösthäusje-Blues
TTITLE14=Schneider-Verzähl-Blues
EXTD=
EXTT0=
EXTT1=
EXTT2=
EXTT3=
EXTT4=
EXTT5=
EXTT6=
EXTT7=
EXTT8=
EXTT9=
EXTT10=
EXTT11=
EXTT12=
EXTT13=
EXTT14=
PLAYORDER=
